<?xml version="1.0" encoding="UTF-8"?> <svg xmlns="http://www.w3.org/2000/svg" width="50" height="50" viewBox="0 0 50 50" fill="none"><g clip-path="url(#clip0_856_3526)"><mask id="mask0_856_3526" style="mask-type:alpha" maskUnits="userSpaceOnUse" x="0" y="0" width="50" height="50"><rect width="50" height="50" fill="#D9D9D9"></rect></mask><g mask="url(#mask0_856_3526)"><path d="M18.3574 45.5528L14.6395 39.2868L7.58025 37.7403L8.26936 30.4727L3.48572 25L8.26936 19.5273L7.58025 12.2597L14.6395 10.7132L18.3574 4.44719L25 7.26771L31.6426 4.44719L35.3606 10.7132L42.4198 12.2597L41.7307 19.5273L46.5144 25L41.7307 30.4727L42.4198 37.7403L35.3606 39.2868L31.6426 45.5528L25 42.7323L18.3574 45.5528ZM19.6875 41.5625L25 39.3109L30.3767 41.5625L33.3334 36.5625L39.0625 35.2484L38.5417 29.375L42.3959 25L38.5417 20.5609L39.0625 14.6875L33.3334 13.4375L30.3125 8.4375L25 10.6891L19.6234 8.4375L16.6667 13.4375L10.9375 14.6875L11.4584 20.5609L7.60421 25L11.4584 29.375L10.9375 35.3125L16.6667 36.5625L19.6875 41.5625ZM22.8125 31.6746L33.8622 20.625L31.6667 18.3654L22.8125 27.2196L18.3334 22.8045L16.1379 25L22.8125 31.6746Z" fill="white"></path></g></g><defs><clipPath id="clip0_856_3526"><rect width="50" height="50" fill="white"></rect></clipPath></defs></svg> 