<?xml version="1.0" encoding="UTF-8"?> <svg xmlns="http://www.w3.org/2000/svg" width="50" height="50" viewBox="0 0 50 50" fill="none"><path d="M24.5723 40.9378C24.7696 40.9378 24.9701 40.8916 25.1739 40.7994C25.3776 40.7071 25.5384 40.6021 25.6562 40.4842L41.6416 24.4989C42.0925 24.0479 42.432 23.5662 42.6601 23.0537C42.8881 22.5413 43.0022 22.0032 43.0022 21.4394C43.0022 20.8552 42.8881 20.2928 42.6601 19.7521C42.432 19.2115 42.0925 18.7259 41.6416 18.2954L33.647 10.3009C33.2165 9.84989 32.7501 9.51998 32.2479 9.31116C31.7457 9.1023 31.2025 8.99787 30.6183 8.99787C30.0545 8.99787 29.5132 9.1023 28.9943 9.31116C28.4754 9.51998 27.9969 9.84989 27.5588 10.3009L26.4134 11.4463L30.1109 15.1745C30.5593 15.6024 30.8904 16.0906 31.1044 16.6389C31.3184 17.1873 31.4253 17.7561 31.4253 18.3454C31.4253 19.5651 31.0179 20.5823 30.2031 21.3972C29.3883 22.212 28.371 22.6194 27.1514 22.6194C26.562 22.6194 25.9912 22.522 25.4391 22.3273C24.8869 22.1325 24.3968 21.8212 23.9689 21.3933L20.183 17.6382L11.4966 26.3246C11.3454 26.4758 11.232 26.6449 11.1565 26.8319C11.0809 27.019 11.043 27.2112 11.043 27.4085C11.043 27.7775 11.1686 28.0927 11.4197 28.354C11.6708 28.6154 11.9809 28.7461 12.3499 28.7461C12.5472 28.7461 12.7477 28.7 12.9514 28.6077C13.1551 28.5155 13.3159 28.4104 13.4338 28.2925L19.9986 21.7277L22.1048 23.834L15.5708 30.3987C15.4196 30.5499 15.3062 30.719 15.2306 30.9061C15.155 31.0932 15.1172 31.2853 15.1172 31.4826C15.1172 31.8388 15.2459 32.1457 15.5035 32.4032C15.761 32.6607 16.0679 32.7895 16.424 32.7895C16.6213 32.7895 16.8219 32.7434 17.0256 32.6511C17.2293 32.5588 17.3901 32.4538 17.508 32.3359L24.3034 25.5713L26.4095 27.6775L19.6449 34.4729C19.5065 34.5908 19.3963 34.7515 19.3143 34.9553C19.2324 35.159 19.1914 35.3595 19.1914 35.5568C19.1914 35.913 19.3201 36.2198 19.5777 36.4773C19.8351 36.7349 20.142 36.8636 20.4982 36.8636C20.6955 36.8636 20.8877 36.8258 21.0747 36.7503C21.2618 36.6746 21.4309 36.5612 21.5821 36.4101L28.3775 29.6454L30.4837 31.7516L23.6883 38.547C23.5371 38.6982 23.4237 38.8737 23.3482 39.0736C23.2726 39.2735 23.2348 39.4657 23.2348 39.6501C23.2348 40.0192 23.3719 40.326 23.646 40.5707C23.9202 40.8154 24.229 40.9378 24.5723 40.9378ZM24.5416 43.9357C23.4116 43.9357 22.4264 43.5436 21.5859 42.7595C20.7455 41.9755 20.306 40.9992 20.2676 39.8308C19.135 39.7539 18.1889 39.3516 17.4292 38.6239C16.6694 37.8962 16.2575 36.9404 16.1935 35.7566C15.0097 35.6797 14.0526 35.2659 13.3223 34.5152C12.5921 33.7644 12.2013 32.8202 12.15 31.6825C10.9611 31.6056 9.97973 31.1745 9.20589 30.3892C8.43208 29.6038 8.04517 28.6102 8.04517 27.4085C8.04517 26.8192 8.15726 26.242 8.38145 25.677C8.60566 25.112 8.93172 24.6155 9.35963 24.1876L20.183 13.395L26.0367 19.2487C26.1546 19.387 26.309 19.4972 26.4999 19.5792C26.6908 19.6612 26.8977 19.7022 27.1206 19.7022C27.4845 19.7022 27.7984 19.5818 28.0623 19.3409C28.3262 19.1 28.4582 18.7849 28.4582 18.3954C28.4582 18.1724 28.4172 17.9655 28.3352 17.7746C28.2532 17.5837 28.143 17.4294 28.0047 17.3115L20.994 10.3009C20.5635 9.84989 20.094 9.51998 19.5854 9.31116C19.0767 9.1023 18.5303 8.99787 17.9461 8.99787C17.3823 8.99787 16.8474 9.1023 16.3414 9.31116C15.8353 9.51998 15.3568 9.84989 14.9058 10.3009L8.34107 16.8964C7.97719 17.2602 7.67931 17.6901 7.44743 18.1859C7.21552 18.6817 7.07906 19.1871 7.03806 19.7022C6.99708 20.1275 7.0163 20.5484 7.09572 20.9648C7.17516 21.3812 7.31482 21.7726 7.51468 22.139L5.30853 24.3452C4.85757 23.6943 4.51806 22.9653 4.29002 22.1582C4.06194 21.351 3.96839 20.5324 4.00936 19.7022C4.05036 18.7823 4.25792 17.8938 4.63204 17.0367C5.00612 16.1796 5.53011 15.4141 6.20402 14.7402L12.7496 8.19466C13.4978 7.46695 14.312 6.91924 15.1921 6.55153C16.0723 6.18384 16.9967 6 17.9652 6C18.9338 6 19.855 6.18384 20.7287 6.55153C21.6025 6.91924 22.4032 7.46695 23.1309 8.19466L24.2763 9.34009L25.4217 8.19466C26.17 7.46695 26.981 6.91924 27.8547 6.55153C28.7285 6.18384 29.6497 6 30.6182 6C31.5868 6 32.5111 6.18384 33.3913 6.55153C34.2715 6.91924 35.0754 7.46695 35.8031 8.19466L43.7477 16.1392C44.4754 16.8669 45.0327 17.6952 45.4196 18.624C45.8065 19.5529 46 20.5016 46 21.4702C46 22.4388 45.8065 23.3599 45.4196 24.2337C45.0327 25.1075 44.4754 25.9082 43.7477 26.6359L27.7625 42.5904C27.3217 43.0311 26.8253 43.3655 26.2731 43.5936C25.7209 43.8217 25.1438 43.9357 24.5416 43.9357Z" fill="white"></path></svg> 