<?xml version="1.0" encoding="UTF-8"?> <svg xmlns="http://www.w3.org/2000/svg" width="50" height="50" viewBox="0 0 50 50" fill="none"><g clip-path="url(#clip0_856_3728)"><mask id="mask0_856_3728" style="mask-type:alpha" maskUnits="userSpaceOnUse" x="0" y="0" width="50" height="50"><rect width="50" height="50" fill="#D9D9D9"></rect></mask><g mask="url(#mask0_856_3728)"><path d="M4.92798 42.8685V6.41026H24.7195V14.7436H45.0721V31.7308H41.9471V17.8685H24.7195V23.0769H29.2869V26.2019H24.7195V31.4103H29.2869V34.5352H24.7195V39.7436H33.8542V42.8685H4.92798ZM8.05287 39.7436H13.2613V34.5352H8.05287V39.7436ZM8.05287 31.4103H13.2613V26.2019H8.05287V31.4103ZM8.05287 23.0769H13.2613V17.8685H8.05287V23.0769ZM8.05287 14.7436H13.2613V9.53521H8.05287V14.7436ZM16.3862 39.7436H21.5946V34.5352H16.3862V39.7436ZM16.3862 31.4103H21.5946V26.2019H16.3862V31.4103ZM16.3862 23.0769H21.5946V17.8685H16.3862V23.0769ZM16.3862 14.7436H21.5946V9.53521H16.3862V14.7436ZM33.8542 26.2019V23.0769H36.9791V26.2019H33.8542ZM33.8542 34.5352V31.4103H36.9791V34.5352H33.8542Z" fill="white"></path><path d="M43.4524 43.1339L39.7817 45.2495L40.7555 41.2837L37.5 38.6176L41.7841 38.2753L43.4524 34.5352L45.1206 38.2753L49.4047 38.6176L46.1492 41.2837L47.123 45.2495L43.4524 43.1339Z" fill="white"></path></g></g><defs><clipPath id="clip0_856_3728"><rect width="50" height="50" fill="white"></rect></clipPath></defs></svg> 