<?xml version="1.0" encoding="UTF-8"?> <svg xmlns="http://www.w3.org/2000/svg" width="50" height="50" viewBox="0 0 50 50" fill="none"><g clip-path="url(#clip0_856_3656)"><mask id="mask0_856_3656" style="mask-type:alpha" maskUnits="userSpaceOnUse" x="0" y="0" width="50" height="50"><rect width="50" height="50" fill="#D9D9D9"></rect></mask><g mask="url(#mask0_856_3656)"><path d="M3.22121 27.8486C2.51607 26.5719 1.97654 25.2744 1.60262 23.9564C1.22862 22.6382 1.04163 21.3194 1.04163 20C1.04163 16.4316 2.2676 13.4215 4.71954 10.9696C7.17142 8.51768 10.1816 7.29172 13.75 7.29172C15.8974 7.29172 17.9507 7.79521 19.9098 8.80219C21.8689 9.80913 23.5657 11.2354 25 13.081C26.4343 11.2354 28.131 9.80913 30.0901 8.80219C32.0493 7.79521 34.1025 7.29172 36.25 7.29172C39.8183 7.29172 42.8285 8.51768 45.2804 10.9696C47.7323 13.4215 48.9582 16.4316 48.9582 20C48.9582 21.2927 48.7713 22.5915 48.3973 23.8963C48.0234 25.201 47.4839 26.5118 46.7787 27.8285C46.4792 27.3552 46.1252 26.9318 45.7167 26.5581C45.3083 26.1845 44.8503 25.8815 44.3429 25.6491C44.829 24.6635 45.1989 23.7053 45.4527 22.7745C45.7064 21.8436 45.8333 20.9188 45.8333 20C45.8333 17.305 44.9098 15.0341 43.0629 13.1871C41.2159 11.3401 38.9449 10.4167 36.25 10.4167C33.7713 10.4167 31.7167 11.1258 30.0861 12.5441C28.4555 13.9623 26.7601 15.7532 25 17.9167C23.2398 15.7318 21.5444 13.9356 19.9138 12.528C18.2832 11.1205 16.2286 10.4167 13.75 10.4167C11.055 10.4167 8.78402 11.3401 6.93704 13.1871C5.0901 15.0341 4.16663 17.305 4.16663 20C4.16663 20.9455 4.2935 21.887 4.54725 22.8245C4.801 23.7621 5.16425 24.7103 5.63699 25.6692C5.12956 25.9149 4.67552 26.2213 4.27486 26.5886C3.87423 26.9559 3.52302 27.3759 3.22121 27.8486ZM1.04173 44.8317V42.2917C1.04173 40.8841 1.76791 39.7402 3.22027 38.8602C4.67267 37.9801 6.55749 37.5401 8.87475 37.5401C9.29906 37.5401 9.70619 37.5521 10.0962 37.5761C10.4861 37.6002 10.8587 37.6469 11.2139 37.7164C10.8213 38.3307 10.5235 38.9844 10.3205 39.6777C10.1175 40.3709 10.0161 41.1093 10.0161 41.893V44.8317H1.04173ZM13.5417 44.8317V41.9671C13.5417 39.9773 14.6005 38.3814 16.7181 37.1795C18.8357 35.9776 21.5982 35.3766 25.0055 35.3766C28.4446 35.3766 31.2132 35.9776 33.3112 37.1795C35.4092 38.3814 36.4582 39.9773 36.4582 41.9671V44.8317H13.5417ZM39.9839 44.8317V41.893C39.9839 41.1093 39.8911 40.3709 39.7054 39.6777C39.5198 38.9844 39.2414 38.3307 38.8701 37.7164C39.2254 37.6469 39.5938 37.6002 39.9756 37.5761C40.3574 37.5521 40.7474 37.5401 41.1457 37.5401C43.4895 37.5401 45.3775 37.9801 46.8098 38.8602C48.2421 39.7402 48.9582 40.8841 48.9582 42.2917V44.8317H39.9839ZM24.9975 38.5016C22.833 38.5016 20.9728 38.7887 19.417 39.363C17.8612 39.9372 16.9978 40.645 16.8269 41.4864V41.7067H33.2051V41.4864C33.0128 40.645 32.1474 39.9372 30.609 39.363C29.0705 38.7887 27.2 38.5016 24.9975 38.5016ZM8.87418 35.5168C7.89362 35.5168 7.05421 35.1677 6.35595 34.4694C5.65769 33.7712 5.30855 32.9318 5.30855 31.9512C5.30855 30.9576 5.65769 30.1183 6.35595 29.4332C7.05421 28.7481 7.89362 28.4055 8.87418 28.4055C9.86775 28.4055 10.7104 28.7481 11.4022 29.4332C12.094 30.1183 12.4399 30.9576 12.4399 31.9512C12.4399 32.9318 12.094 33.7712 11.4022 34.4694C10.7104 35.1677 9.86775 35.5168 8.87418 35.5168ZM41.1457 35.5168C40.1736 35.5168 39.3362 35.1677 38.6338 34.4694C37.9313 33.7712 37.5801 32.9318 37.5801 31.9512C37.5801 30.9576 37.9313 30.1183 38.6338 29.4332C39.3362 28.7481 40.1749 28.4055 41.1497 28.4055C42.154 28.4055 42.9987 28.7481 43.6838 29.4332C44.3689 30.1183 44.7114 30.9576 44.7114 31.9512C44.7114 32.9318 44.3697 33.7712 43.6863 34.4694C43.0029 35.1677 42.156 35.5168 41.1457 35.5168ZM25.007 33.8141C23.5066 33.8141 22.2289 33.2883 21.1739 32.2366C20.1189 31.1849 19.5914 29.9079 19.5914 28.4055C19.5914 26.8731 20.1172 25.5886 21.1689 24.5519C22.2205 23.5153 23.4976 22.997 25 22.997C26.5324 22.997 27.8169 23.5146 28.8536 24.5499C29.8902 25.5852 30.4086 26.868 30.4086 28.3985C30.4086 29.8989 29.8909 31.1766 28.8556 32.2316C27.8203 33.2866 26.5375 33.8141 25.007 33.8141ZM25 26.1219C24.3696 26.1219 23.8314 26.3407 23.3854 26.7784C22.9393 27.2161 22.7163 27.7585 22.7163 28.4055C22.7163 29.0359 22.9393 29.5741 23.3854 30.0202C23.8314 30.4662 24.3729 30.6892 25.01 30.6892C25.647 30.6892 26.1852 30.4662 26.6246 30.0202C27.0639 29.5741 27.2836 29.0325 27.2836 28.3955C27.2836 27.7585 27.0648 27.2203 26.6271 26.7809C26.1894 26.3416 25.647 26.1219 25 26.1219Z" fill="white"></path></g></g><defs><clipPath id="clip0_856_3656"><rect width="50" height="50" fill="white"></rect></clipPath></defs></svg> 